<?xml version="1.0" encoding="iso-8859-1"?>
<!-- Generator: Adobe Illustrator 19.0.0, SVG Export Plug-In . SVG Version: 6.00 Build 0)  -->
<svg version="1.1" id="Capa_1" xmlns="http://www.w3.org/2000/svg" xmlns:xlink="http://www.w3.org/1999/xlink" x="0px" y="0px"
	 viewBox="0 0 478.381 478.381" style="enable-background:new 0 0 478.381 478.381;" xml:space="preserve">
<g>
	<g>
		<path d="M476.038,124.166L374.222,22.342c-0.808-0.794-1.777-1.408-2.84-1.8c-1.238-0.845-2.694-1.315-4.192-1.352h-88
			c-4.418,0-8,3.582-8,8c0,17.673-14.327,32-32,32c-17.673,0-32-14.327-32-32c0-4.418-3.582-8-8-8h-88
			c-1.498,0.038-2.954,0.508-4.192,1.352c-1.063,0.392-2.031,1.006-2.84,1.8L2.342,124.166c-3.123,3.124-3.123,8.188,0,11.312
			l56.568,56.56c3.124,3.123,8.188,3.123,11.312,0l32.968-32.968v292.12c0,4.418,3.582,8,8,8h256c4.418,0,8-3.582,8-8V159.07
			l32.968,32.968c3.124,3.123,8.188,3.123,11.312,0l56.568-56.56C479.161,132.354,479.161,127.29,476.038,124.166z M413.814,175.07
			l-40.968-40.968c-3.125-3.124-8.19-3.123-11.314,0.002c-1.499,1.5-2.342,3.534-2.342,5.654V443.19h-240V139.758
			c-0.001-4.418-3.583-7.999-8.002-7.998c-2.121,0-4.154,0.843-5.654,2.342L64.566,175.07L19.31,129.822l94.624-94.632h77.92
			c4.394,26.143,29.149,43.774,55.292,39.38c20.178-3.392,35.988-19.201,39.38-39.38h77.92l94.624,94.632L413.814,175.07z"/>
	</g>
</g>
<g>
</g>
<g>
</g>
<g>
</g>
<g>
</g>
<g>
</g>
<g>
</g>
<g>
</g>
<g>
</g>
<g>
</g>
<g>
</g>
<g>
</g>
<g>
</g>
<g>
</g>
<g>
</g>
<g>
</g>
</svg>
