<svg id="Capa_1" enable-background="new 0 0 512 512" height="512" viewBox="0 0 512 512" width="512" xmlns="http://www.w3.org/2000/svg"><g><g><path d="m36.37 210.302v154.198c0 4.143 3.358 7.5 7.5 7.5s7.5-3.357 7.5-7.5v-154.2c11.525-2.045 21.472-8.702 27.852-18 7.73 11.265 20.692 18.671 35.355 18.671 14.664 0 27.626-7.406 35.356-18.671 7.73 11.265 20.692 18.671 35.355 18.671 14.664 0 27.626-7.406 35.356-18.671 7.73 11.265 20.692 18.671 35.355 18.671s27.626-7.406 35.355-18.671c7.73 11.265 20.692 18.671 35.356 18.671 14.663 0 27.626-7.406 35.355-18.671 7.73 11.265 20.692 18.671 35.356 18.671 14.663 0 27.626-7.406 35.355-18.671 6.38 9.297 16.327 15.955 27.852 18v28.2c0 4.143 3.358 7.5 7.5 7.5s7.5-3.357 7.5-7.5v-28.198c20.067-3.557 35.36-21.113 35.36-42.186v-19.193h-.013c0-1.161-.256-2.324-.798-3.393l-66.11-130.357c-4.744-9.358-14.212-15.173-24.706-15.173h-88.68c-.021 0-.042 0-.063 0h-149.24c-.017 0-.035 0-.052 0h-88.687c-10.494 0-19.962 5.815-24.708 15.173l-66.11 130.357c-.542 1.069-.798 2.232-.798 3.393h-.013v19.193c0 21.073 15.293 38.629 35.36 42.186zm7.496-14.33c-15.359 0-27.855-12.496-27.855-27.855v-11.693h55.711v11.693c0 15.359-12.496 27.855-27.856 27.855zm128.04-180.972-27.994 126.423h-53.976l46.054-126.423zm51.737 0-9.933 126.423h-54.435l27.994-126.423zm49.667 0 9.933 126.423h-54.486l9.933-126.423zm51.421 0 27.994 126.423h-54.435l-9.933-126.423zm51.279 0 46.054 126.423h-53.976l-27.994-126.423zm-261.433 180.972c-15.359 0-27.855-12.496-27.855-27.855v-11.693h55.711v11.693c0 15.359-12.496 27.855-27.856 27.855zm70.712 0c-15.359 0-27.855-12.496-27.855-27.855v-11.693h55.711v11.693c0 15.359-12.497 27.855-27.856 27.855zm70.711 0c-15.359 0-27.855-12.496-27.855-27.855v-11.693h55.711v11.693c-.001 15.359-12.497 27.855-27.856 27.855zm70.711 0c-15.36 0-27.856-12.496-27.856-27.855v-11.693h55.711v11.693c.001 15.359-12.495 27.855-27.855 27.855zm70.712 0c-15.36 0-27.856-12.496-27.856-27.855v-11.693h55.711v11.693c0 15.359-12.496 27.855-27.855 27.855zm70.711 0c-15.36 0-27.856-12.496-27.856-27.855v-11.693h55.711v11.693c.001 15.359-12.495 27.855-27.855 27.855zm-37.443-174.014 60.586 119.465h-53.249l-46.054-126.423h27.387c4.812 0 9.154 2.666 11.33 6.958zm-349.382 0c2.176-4.292 6.518-6.958 11.33-6.958h27.387l-46.054 126.423h-53.249z"/><path d="m229.736 252.541c-4.142 0-7.5 3.357-7.5 7.5v173.748c0 4.143 3.358 7.5 7.5 7.5h206.073c4.142 0 7.5-3.357 7.5-7.5v-173.748c0-4.143-3.358-7.5-7.5-7.5zm7.5 15h191.073v126.423h-191.073zm191.073 158.748h-191.073v-17.325h191.073z"/><path d="m165.085 334.364c-4.142 0-7.5 3.357-7.5 7.5v40.406c0 4.143 3.358 7.5 7.5 7.5s7.5-3.357 7.5-7.5v-40.406c0-4.142-3.357-7.5-7.5-7.5z"/><path d="m494.4 464.67h-18.77v-191.17c0-4.143-3.358-7.5-7.5-7.5s-7.5 3.357-7.5 7.5v191.17h-255.719v-204.629c0-4.143-3.358-7.5-7.5-7.5h-121.22c-4.142 0-7.5 3.357-7.5 7.5v204.629h-17.321v-65.17c0-4.143-3.358-7.5-7.5-7.5s-7.5 3.357-7.5 7.5v65.17h-18.77c-9.705 0-17.6 7.9-17.6 17.61v12.12c0 9.704 7.896 17.6 17.6 17.6h388.59c4.142 0 7.5-3.357 7.5-7.5s-3.358-7.5-7.5-7.5h-388.59c-1.434 0-2.6-1.166-2.6-2.6v-12.12c0-1.439 1.167-2.61 2.6-2.61h476.8c1.434 0 2.6 1.171 2.6 2.61v12.12c0 1.434-1.167 2.6-2.6 2.6h-53.21c-4.142 0-7.5 3.357-7.5 7.5s3.358 7.5 7.5 7.5h53.21c9.705 0 17.6-7.896 17.6-17.6v-12.12c0-9.71-7.896-17.61-17.6-17.61zm-410.709-197.129h106.22v197.129h-106.22z"/><path d="m383.61 306.645-34.345-14.144c-2.992-1.231-6.442-.405-8.55 2.055l-9.877 11.523h-15.743c-20.846 0-37.805 16.959-37.805 37.805v18.184c0 4.143 3.358 7.5 7.5 7.5h95.965c4.142 0 7.5-3.357 7.5-7.5v-48.488c0-3.04-1.834-5.779-4.645-6.935zm-10.355 47.922h-80.965v-10.684c0-12.574 10.23-22.805 22.805-22.805h19.193c2.189 0 4.27-.957 5.694-2.619l8.59-10.021 24.683 10.163z"/></g></g></svg>